<?xml version="1.0" encoding="UTF-8"?>
<svg version="1.1" xmlns="http://www.w3.org/2000/svg" width="256" height="256">
<path d="M0 0 C1.15048828 1.01320313 1.15048828 1.01320313 2.32421875 2.046875 C3.14277344 2.72234375 3.96132812 3.3978125 4.8046875 4.09375 C25.04769103 21.29245687 38.08538223 47.9287888 41.32421875 74.046875 C42.3761663 89.65288058 42.08708665 105.07577606 37.32421875 120.046875 C37.01073486 121.05766113 37.01073486 121.05766113 36.69091797 122.08886719 C27.68421049 150.33012375 8.32121535 172.90377825 -17.67578125 187.046875 C-34.91829386 195.94903472 -55.13064733 201.47624886 -74.67578125 200.046875 C-75.86816406 199.96695313 -77.06054688 199.88703125 -78.2890625 199.8046875 C-106.52952175 197.44036998 -134.75768632 184.46054841 -153.67578125 163.046875 C-171.96374952 141.39489919 -182.12894993 116.28400052 -181.98828125 87.734375 C-181.9833667 86.54811523 -181.97845215 85.36185547 -181.97338867 84.13964844 C-181.85671285 75.4015271 -181.12055184 67.47437686 -178.67578125 59.046875 C-178.35867187 57.87125 -178.0415625 56.695625 -177.71484375 55.484375 C-173.36211285 40.91353113 -166.14577464 26.17340263 -155.67578125 15.046875 C-155.15918945 14.48548828 -154.64259766 13.92410156 -154.11035156 13.34570312 C-114.96712095 -28.89645815 -45.73281988 -39.00518192 0 0 Z " fill="#080505" transform="translate(200.67578125,50.953125)"/>
<path d="M0 0 C10.27358062 4.38587529 19.12789169 10.49885124 24.7109375 20.27734375 C25.13632813 20.84582031 25.56171875 21.41429688 26 22 C26.99 22 27.98 22 29 22 C30.75 23.9375 30.75 23.9375 32 27 C31.859375 29.16015625 31.859375 29.16015625 31.5 31.5 C31.01794956 34.69424635 30.89332391 35.74734611 32.1875 38.8125 C33.98476731 41.05088365 33.98476731 41.05088365 36.125 43.125 C39.47501831 46.47501831 39.18892281 49.98028768 39.25 54.5 C39.27578125 55.6446875 39.3015625 56.789375 39.328125 57.96875 C39 61 39 61 37.484375 62.90625 C36.99453125 63.2671875 36.5046875 63.628125 36 64 C35.67 63.67 35.34 63.34 35 63 C35.25369167 59.68307602 35.55221361 56.38111626 35.94726562 53.078125 C36.28495194 49.29046824 36.19693547 47.32060248 34.18359375 44.04296875 C31.71609569 41.73437933 30.36367692 41.08851781 27 41 C24.68790082 42.85487808 24.68790082 42.85487808 24.91796875 45.765625 C25.57409561 61.36838255 25.57409561 61.36838255 32 75 C23.66765987 91.81686913 23.66765987 91.81686913 17.375 95.5625 C14.85445222 96.81367203 14.85445222 96.81367203 13.78515625 99.25390625 C11.43182285 102.87402306 8.55546088 104.90444376 5.0625 107.375 C4.39226807 107.85614258 3.72203613 108.33728516 3.03149414 108.83300781 C-4.44822829 114.13288479 -12.21428826 118.67559637 -20.46289062 122.66625977 C-25.51657875 125.11505716 -30.01820577 127.38533441 -34.08984375 131.26953125 C-37.28837873 134.16718155 -40.81381175 136.67490174 -44.29516602 139.22192383 C-49.17983286 142.88965965 -53.59196495 147.0314867 -55.8125 152.875 C-56.204375 153.90625 -56.59625 154.9375 -57 156 C-57.66 156 -58.32 156 -59 156 C-57.10351759 149.33420458 -54.38306125 143.78082263 -50.6875 137.9375 C-49.99624023 136.81118164 -49.99624023 136.81118164 -49.29101562 135.66210938 C-44.43283432 127.84442401 -39.71009528 120.99817024 -32.25 115.5 C-31.01132284 114.55911474 -29.7730438 113.61770513 -28.53515625 112.67578125 C-27.9333252 112.22283691 -27.33149414 111.76989258 -26.71142578 111.30322266 C-24.32506569 109.48604859 -22.00846671 107.58713316 -19.6875 105.6875 C-8.77680598 96.94817765 -8.77680598 96.94817765 -3.59765625 95.1796875 C-0.14491542 93.61167588 2.16569039 91.19576232 4.75 88.5 C5.49056641 87.75169922 5.49056641 87.75169922 6.24609375 86.98828125 C8.95599197 84.24215717 8.95599197 84.24215717 11 81 C12.8125 80.40234375 12.8125 80.40234375 15 79.9375 C17.77114877 79.48293377 17.77114877 79.48293377 20 78 C20.1369733 74.9865874 20.09152275 72.37524326 19.375 69.4375 C19 67 19 67 19.94921875 64.75 C23.40337928 55.71011518 20.92071761 45.78552493 17.4921875 37.13671875 C15.48128369 32.90960944 13.14113615 29.45356098 10 26 C9.2575 25.13375 8.515 24.2675 7.75 23.375 C-4.39241218 12.8883713 -17.14826337 12.1028183 -32.58349609 12.80908203 C-42.06506344 13.55818141 -49.91555104 16.98391732 -57.59765625 22.51171875 C-60 24 -60 24 -62.44140625 24.3984375 C-66.0647556 25.25033949 -68.24699668 27.44304542 -70.875 29.9375 C-71.66173096 30.67141968 -71.66173096 30.67141968 -72.46435547 31.42016602 C-78.11925577 36.84213538 -82.61473309 42.92318012 -86 50 C-90.03520597 48.41037341 -94.01811282 46.71767682 -98 45 C-98.30223051 41.48593005 -98.29929522 39.50887921 -96.48828125 36.4296875 C-84.45040443 22.29544793 -69.86725921 8.25354072 -52 2 C-51.01 2.33 -50.02 2.66 -49 3 C-50.32 3.99 -51.64 4.98 -53 6 C-51.2984375 5.1028125 -51.2984375 5.1028125 -49.5625 4.1875 C-42.60086119 0.73128002 -36.83281282 -1.15358457 -29 -1 C-28.37480469 -1.32226562 -27.74960938 -1.64453125 -27.10546875 -1.9765625 C-19.34620528 -5.74822675 -7.76075997 -2.35389071 0 0 Z " fill="#F5F5F5" transform="translate(165,71)"/>
<path d="M0 0 C0.66 0.33 1.32 0.66 2 1 C2.34375 2.9609375 2.34375 2.9609375 2.5 5.375 C2.72941463 8.89651464 2.95292864 9.92939296 5 13 C5.70491267 15.32206525 6.37212429 17.65593068 7 20 C7.64432209 23.08033461 7.64432209 23.08033461 9.83203125 23.9765625 C10.54746094 24.31429687 11.26289062 24.65203125 12 25 C13.257497 26.0932415 14.48557033 27.22094594 15.6875 28.375 C21.47987249 33.50477637 26.80018997 36.03191447 34.5625 36.375 C40.40500009 36.70323034 43.92071234 38.890041 48 43 C50.37358694 46.56038041 50.73959381 47.80896839 50 52 C46.51130001 56.02972833 42.92349197 58.58572095 37.57421875 59.34375 C28.2266054 59.84971013 21.82225714 56.54782392 14 52 C12.83791016 51.37544922 12.83791016 51.37544922 11.65234375 50.73828125 C0.85660324 44.62141039 -5.59817888 35.36547382 -10 24 C-10 22.68 -10 21.36 -10 20 C-9.01 19.34 -8.02 18.68 -7 18 C-6.23639706 16.14079285 -5.48462841 14.27466943 -4.828125 12.375 C-3.90076669 9.71540636 -2.86619352 7.11197267 -1.8125 4.5 C-1.29623047 3.21609375 -1.29623047 3.21609375 -0.76953125 1.90625 C-0.51558594 1.2771875 -0.26164062 0.648125 0 0 Z " fill="#F8F8F8" transform="translate(65,149)"/>
<path d="M0 0 C5.00684759 0.28610558 7.57579441 2.57579441 11 6 C11 7.32 11 8.64 11 10 C12.051875 10.0825 13.10375 10.165 14.1875 10.25 C18.39964409 11.07861851 20.03525894 11.95290503 23 15 C25.52965809 18.83810194 26.69246842 22.3231353 26.4609375 26.98046875 C25.54301941 31.00219463 23.29874145 33.60778292 20 36 C18.15970472 36.54886 16.30348993 37.04611056 14.4375 37.5 C11.49974378 38.24447991 11.49974378 38.24447991 9 40 C7.08270631 43.84314672 5.93748676 47.51732584 4.90234375 51.6640625 C4 55 4 55 2 57 C2.54881057 50.64780958 3.16511613 44.32126362 4 38 C3.278125 37.9175 2.55625 37.835 1.8125 37.75 C-2.26973878 36.66140299 -4.89422195 34.57968293 -7.3125 31.125 C-8.20774213 28.35788795 -8.13126019 25.88772424 -8 23 C-8.66 23 -9.32 23 -10 23 C-10.268125 23.70125 -10.53625 24.4025 -10.8125 25.125 C-12.0681449 28.1649824 -13.50235123 31.0727774 -15 34 C-16.86328125 33.7890625 -16.86328125 33.7890625 -19 33 C-23.79066079 25.30452584 -23.76337045 15.76712467 -24 7 C-19.3984375 5.78125 -19.3984375 5.78125 -15.8125 7.75 C-13 10 -13 10 -11 13 C-10.875 16.0625 -10.875 16.0625 -11 19 C-11 19.66 -11 20.32 -11 21 C-8.71514139 18.71514139 -8.70647543 18.01870913 -8.25 14.9375 C-7.11579402 9.24802774 -4.11844391 4.11844391 0 0 Z " fill="#F1F1F1" transform="translate(54,108)"/>
<path d="M0 0 C0.58334856 4.86731454 -1.44476702 7.71508794 -4 11.625 C-7.33046374 17.05917914 -8.86112344 21.18554405 -8.57421875 27.6953125 C-7.88856267 30.44726546 -6.96734776 31.96354167 -5 34 C-0.85687824 34.61379582 1.23437367 34.47638972 4.8125 32.25 C8.40254459 28.5573827 9.24101728 25.75939009 9.34375 20.6484375 C9.38822266 19.12476563 9.38822266 19.12476563 9.43359375 17.5703125 C9.47802688 15.43229503 9.52229653 13.29427416 9.56640625 11.15625 C9.61087891 9.63644531 9.61087891 9.63644531 9.65625 8.0859375 C9.67494141 7.1582959 9.69363281 6.2306543 9.71289062 5.27490234 C10 3 10 3 12 1 C14.9425963 1.30652045 17.34542308 1.67271154 20 3 C20.262542 4.57525202 20.46051171 6.16151304 20.625 7.75 C21.17609204 10.93358129 21.480514 12.51738775 23.87109375 14.73828125 C25.87437201 15.94881838 27.88525851 17.00072655 30 18 C31 19 31 19 31.0625 22.0625 C31.041875 23.031875 31.02125 24.00125 31 25 C23.00348432 25.6271777 23.00348432 25.6271777 19 23.125 C17 21 17 21 16 19 C15.96261719 19.88042969 15.92523438 20.76085937 15.88671875 21.66796875 C15.82097656 22.82941406 15.75523437 23.99085938 15.6875 25.1875 C15.60048828 26.91033203 15.60048828 26.91033203 15.51171875 28.66796875 C14.78357668 33.40922968 13.09871474 36.01397395 9.5625 39.1875 C4.01588994 43.11071199 -0.2657817 43.69965904 -7 43 C-10.13594153 41.73227896 -11.56546548 40.47948636 -13.8125 38 C-16.51095757 31.18284404 -15.40343526 23.75966167 -13 17 C-12.34 17 -11.68 17 -11 17 C-11 15.68 -11 14.36 -11 13 C-12.6396875 13.061875 -12.6396875 13.061875 -14.3125 13.125 C-18 13 -18 13 -21 11 C-21.1875 8.375 -21.1875 8.375 -21 6 C-20.443125 5.82984375 -19.88625 5.6596875 -19.3125 5.484375 C-14.50836457 3.9587374 -10.19125587 2.19871409 -5.82421875 -0.328125 C-3.52570183 -1.17468798 -2.27707175 -0.78415716 0 0 Z " fill="#F2F2F1" transform="translate(153,124)"/>
<path d="M0 0 C1.6026782 -0.10824843 3.20745748 -0.18570645 4.8125 -0.25 C5.70582031 -0.29640625 6.59914063 -0.3428125 7.51953125 -0.390625 C10 0 10 0 11.82421875 2.015625 C12.40623047 2.99789062 12.40623047 2.99789062 13 4 C13.556875 3.649375 14.11375 3.29875 14.6875 2.9375 C17.63159108 1.74394956 19.00185923 2.02560425 22 3 C24.3125 4.5625 24.3125 4.5625 26 6 C25.375 7.9375 25.375 7.9375 24 10 C20.875 10.75 20.875 10.75 18 11 C18.66 12.65 19.32 14.3 20 16 C21.670625 15.9690625 21.670625 15.9690625 23.375 15.9375 C27 16 27 16 29 17 C28.505 18.485 28.505 18.485 28 20 C25.9375 20.6875 25.9375 20.6875 24 21 C24.495 22.03125 24.99 23.0625 25.5 24.125 C26.96108173 27.53880708 27.43551354 30.25458355 27 34 C25 36 25 36 22.0625 36.25 C19 36 19 36 16 34 C12.89143 33.76685725 10.98586231 34.00471256 8 35 C7.15160508 40.51456701 9.19386297 43.60437082 12.265625 47.94140625 C14.58861726 50.69865157 16.8505641 52.27530891 20 54 C17 55 17 55 14.66015625 53.9609375 C4.18942731 47.56828194 4.18942731 47.56828194 2 41 C1.42720764 33.8973747 1.42720764 33.8973747 3.875 30.0625 C7.13428305 26.89907822 8.9946562 26.86319962 13.4375 26.875 C14.40558594 26.87242187 15.37367187 26.86984375 16.37109375 26.8671875 C19 27 19 27 22 28 C21.01 26.35 20.02 24.7 19 23 C14.87026372 23.56739868 14.87026372 23.56739868 11 25 C5.46153846 25.23076923 5.46153846 25.23076923 3 24 C3 22.68 3 21.36 3 20 C6.96 19.67 10.92 19.34 15 19 C14.01 17.35 13.02 15.7 12 14 C10.845 14.33 9.69 14.66 8.5 15 C4.18934663 16.07382824 0.43540795 16.3058902 -4 16 C-4.66 15.34 -5.32 14.68 -6 14 C-6 13.01 -6 12.02 -6 11 C-2.73454239 9.11608215 0.28111761 8.50712033 4 8 C3.01 7.67 2.02 7.34 1 7 C0.67 4.69 0.34 2.38 0 0 Z " fill="#EFEFEF" transform="translate(93,119)"/>
<path d="M0 0 C2.0625 0.4375 2.0625 0.4375 4 1 C2.68 2.32 1.36 3.64 0 5 C0.66 5.66 1.32 6.32 2 7 C2.1875 10.0625 2.1875 10.0625 2 13 C1.67 13.33 1.34 13.66 1 14 C1.66 14.33 2.32 14.66 3 15 C3.6328125 17.73046875 3.6328125 17.73046875 4.125 21.1875 C4.29257812 22.31542969 4.46015625 23.44335938 4.6328125 24.60546875 C4.97525114 27.77120471 5.06757134 30.81932036 5 34 C1.07489083 33.41850235 -1.15007824 31.70742568 -4 29 C-5.50832311 26.72531208 -6.73867039 24.4292274 -8 22 C-10.82184205 23.41092103 -10.89577176 25.07704289 -12 28 C-12.98482022 30.00751815 -13.98152514 32.00934459 -15 34 C-16.86328125 33.7890625 -16.86328125 33.7890625 -19 33 C-23.79066079 25.30452584 -23.76337045 15.76712467 -24 7 C-19.3984375 5.78125 -19.3984375 5.78125 -15.8125 7.75 C-13 10 -13 10 -11 13 C-10.875 16.0625 -10.875 16.0625 -11 19 C-11 19.66 -11 20.32 -11 21 C-8.71514139 18.71514139 -8.70647543 18.01870913 -8.25 14.9375 C-7.11579402 9.24802774 -4.11844391 4.11844391 0 0 Z " fill="#F0F0F0" transform="translate(54,108)"/>
<path d="M0 0 C2.98828314 0.32305764 4.61321245 0.65189121 6.875 2.6875 C8.42338845 5.87029848 7.69500585 7.52497076 7 11 C6.89881076 14.66811012 6.94124795 18.33126115 7 22 C10.6446508 22.32939993 12.50217501 22.31760348 15.6328125 20.3203125 C16.45523438 19.59585938 17.27765625 18.87140625 18.125 18.125 C24.85733441 12.27353178 24.85733441 12.27353178 29.9375 11.625 C33.7368243 12.09022338 35.28638434 13.36391621 38 16 C39.43304064 18.86608129 39.30644155 20.81300783 39 24 C34.13798496 33.14058828 25.4379076 39.37472827 17 45 C17.39871224 39.80701616 20.10730332 37.08180088 23.4375 33.375 C29.84008472 26.2696626 29.84008472 26.2696626 31 17 C27.62932765 17.24967943 26.80600981 18.20818459 24.4375 20.75 C22.90509966 22.69228249 21.71371118 24.51293413 20.5 26.6875 C18.64406228 29.54873732 17.11252975 30.62469616 14 32 C10.9375 32.5 10.9375 32.5 8 32 C2.2473279 26.90477614 0.76600828 18.64278385 0.1171875 11.28515625 C-0.07605171 7.51699172 -0.0598812 3.77251559 0 0 Z " fill="#EDEDED" transform="translate(192,114)"/>
<path d="M0 0 C3.6025995 1.45819503 5.76745732 3.71184084 7.625 7.0625 C8.06898574 9.92698081 7.79744591 12.57346996 7.4375 15.4375 C7.36724609 16.17355469 7.29699219 16.90960938 7.22460938 17.66796875 C7.04921369 19.4686978 6.84047947 21.26612661 6.625 23.0625 C7.285 23.0625 7.945 23.0625 8.625 23.0625 C8.625 23.7225 8.625 24.3825 8.625 25.0625 C9.285 25.3925 9.945 25.7225 10.625 26.0625 C8.62545254 26.10504356 6.62458364 26.10330783 4.625 26.0625 C3.625 25.0625 3.625 25.0625 3.4921875 22.76953125 C3.51419289 14.61653557 3.51419289 14.61653557 4.3125 10.625 C4.87398745 8.01515697 4.87398745 8.01515697 3.4375 5.75 C1.43995093 3.89021294 0.23829954 3.60896636 -2.375 3.0625 C-1.12487253 19.85370374 -1.12487253 19.85370374 5.625 35.0625 C4.14 35.5575 4.14 35.5575 2.625 36.0625 C-4.6198035 28.04093407 -4.64032997 16.27677738 -5.5546875 5.92578125 C-5.375 3.0625 -5.375 3.0625 -4.03125 1.171875 C-2.375 0.0625 -2.375 0.0625 0 0 Z " fill="#2A2A2A" transform="translate(194.375,110.9375)"/>
<path d="M0 0 C0.40089844 0.42152344 0.80179688 0.84304687 1.21484375 1.27734375 C5.90956687 5.80173678 9.52060152 6.97061497 16 7 C16.33 5.02 16.66 3.04 17 1 C17.33 1 17.66 1 18 1 C18.25 3.8125 18.25 3.8125 18 7 C16.375 8.875 16.375 8.875 14 10 C10.75 10.1875 10.75 10.1875 8 10 C7.77957031 10.54269531 7.55914062 11.08539063 7.33203125 11.64453125 C5.56306145 14.77265087 3.20490633 17.16340733 0.6875 19.6875 C0.21376953 20.18572266 -0.25996094 20.68394531 -0.74804688 21.19726562 C-3.64638525 24.11939337 -5.79419622 25.92037205 -10 26 C-10.66 25.34 -11.32 24.68 -12 24 C-11.45730469 23.69707031 -10.91460937 23.39414063 -10.35546875 23.08203125 C-9.64003906 22.66308594 -8.92460937 22.24414062 -8.1875 21.8125 C-7.12595703 21.20341797 -7.12595703 21.20341797 -6.04296875 20.58203125 C-2.35759839 17.72815936 -1.14932394 15.03614859 -0.48828125 10.44921875 C-0.43027344 9.20785156 -0.37226563 7.96648437 -0.3125 6.6875 C-0.24675781 5.43324219 -0.18101562 4.17898437 -0.11328125 2.88671875 C-0.05720703 1.45779297 -0.05720703 1.45779297 0 0 Z " fill="#222121" transform="translate(168,142)"/>
<path d="M0 0 C0.3396019 1.87387477 0.67138691 3.74916697 1 5.625 C1.185625 6.66914063 1.37125 7.71328125 1.5625 8.7890625 C1.98715797 11.90574865 2.07545206 14.85930812 2 18 C-1.88999932 17.4237038 -4.14170537 15.63263979 -7 13 C-8.50554244 10.77753259 -8.97377758 9.13111209 -9.5 6.5 C-9 4 -9 4 -6.1875 1.6875 C-3 0 -3 0 0 0 Z " fill="#0C0909" transform="translate(57,124)"/>
<path d="M0 0 C0.66 0 1.32 0 2 0 C2 0.66 2 1.32 2 2 C4.31 2 6.62 2 9 2 C9 2.66 9 3.32 9 4 C8.01 4 7.02 4 6 4 C6.34444881 6.47266765 6.34444881 6.47266765 7 9 C7.66 9.33 8.32 9.66 9 10 C6 12 6 12 3 12 C3 13.65 3 15.3 3 17 C2.01 16.67 1.02 16.34 0 16 C0.33 15.01 0.66 14.02 1 13 C-1.97 12.505 -1.97 12.505 -5 12 C-4.67 11.236875 -4.34 10.47375 -4 9.6875 C-2.82563314 7.00930865 -2.82563314 7.00930865 -3 4 C-3.99 3.67 -4.98 3.34 -6 3 C-4.02 2.67 -2.04 2.34 0 2 C0 1.34 0 0.68 0 0 Z " fill="#E9E9E9" transform="translate(141,101)"/>
<path d="M0 0 C6.47321429 2.58928571 6.47321429 2.58928571 8 5 C8.65491613 10.07559998 8.84709156 11.9010704 5.6875 16 C3 18 3 18 0 18 C0 12.06 0 6.12 0 0 Z " fill="#262626" transform="translate(65,123)"/>
<path d="M0 0 C3.94139078 1.66751148 6.7892812 4.22710649 10 7 C8.02 7.99 8.02 7.99 6 9 C6.33 11.31 6.66 13.62 7 16 C4.525 15.01 4.525 15.01 2 14 C1.67 14.99 1.34 15.98 1 17 C0.34 17 -0.32 17 -1 17 C-1.33 14.03 -1.66 11.06 -2 8 C-2.99 8 -3.98 8 -5 8 C-4.360625 7.236875 -3.72125 6.47375 -3.0625 5.6875 C-0.85767219 3.11753287 -0.85767219 3.11753287 0 0 Z " fill="#8B8B8B" transform="translate(122,100)"/>
<path d="M0 0 C0.66 0 1.32 0 2 0 C2 0.66 2 1.32 2 2 C2.99 2 3.98 2 5 2 C5 3.65 5 5.3 5 7 C5.33 5.35 5.66 3.7 6 2 C7.65 2 9.3 2 11 2 C11 3.65 11 5.3 11 7 C11.99 7 12.98 7 14 7 C14 7.66 14 8.32 14 9 C12.35 9 10.7 9 9 9 C8.67 7.68 8.34 6.36 8 5 C7.34 6.65 6.68 8.3 6 10 C8.64 10.66 11.28 11.32 14 12 C14 12.66 14 13.32 14 14 C11.8125 14.25 11.8125 14.25 9 14 C8.195625 13.29875 7.39125 12.5975 6.5625 11.875 C5.2940625 10.946875 5.2940625 10.946875 4 10 C0.71895528 10.62036318 0.71895528 10.62036318 -2 12 C-1.01 10.35 -0.02 8.7 1 7 C0.01 7.33 -0.98 7.66 -2 8 C-1.34 5.36 -0.68 2.72 0 0 Z " fill="#C1C1C1" transform="translate(155,103)"/>
<path d="M0 0 C3.30551833 0.11805423 4.35369723 1.33011741 6.8125 3.625 C9.01175987 6.41117891 9.00033197 6.9797496 8.9375 10.8125 C8.628125 11.864375 8.31875 12.91625 8 14 C7.01 14.495 7.01 14.495 6 15 C5.773125 14.4225 5.54625 13.845 5.3125 13.25 C4.08236943 10.7879314 4.08236943 10.7879314 1.375 9.125 C-1 7 -1 7 -1.375 3.8125 C-1 1 -1 1 0 0 Z " fill="#ECECEC" transform="translate(199,102)"/>
<path d="M0 0 C4.104469 3.12296555 6.47405339 4.93038592 8 10 C8.30078125 13.2265625 8.30078125 13.2265625 8.3125 16.625 C8.32925781 17.75164062 8.34601563 18.87828125 8.36328125 20.0390625 C8 23 8 23 6.48046875 24.8984375 C5.99191406 25.26195312 5.50335938 25.62546875 5 26 C4.67 25.67 4.34 25.34 4 25 C4.25369167 21.68307602 4.55221361 18.38111626 4.94726562 15.078125 C5.28538731 11.28558486 5.22745561 9.35435189 3.14453125 6.109375 C2.43683594 5.41328125 1.72914063 4.7171875 1 4 C0.34 3.34 -0.32 2.68 -1 2 C-0.67 1.34 -0.34 0.68 0 0 Z " fill="#EEEEEE" transform="translate(196,109)"/>
<path d="M0 0 C0.66 0 1.32 0 2 0 C2 0.66 2 1.32 2 2 C2.66 2 3.32 2 4 2 C4 2.66 4 3.32 4 4 C3.34 4 2.68 4 2 4 C2 4.99 2 5.98 2 7 C2.94875 6.79375 3.8975 6.5875 4.875 6.375 C6.421875 6.189375 6.421875 6.189375 8 6 C8.66 6.66 9.32 7.32 10 8 C9.625 10.125 9.625 10.125 9 12 C7.68 12.33 6.36 12.66 5 13 C4.67 12.34 4.34 11.68 4 11 C5.32 11 6.64 11 8 11 C8 10.01 8 9.02 8 8 C6.35 8.33 4.7 8.66 3 9 C2.67 10.32 2.34 11.64 2 13 C0.68 12.67 -0.64 12.34 -2 12 C-1.34 9.69 -0.68 7.38 0 5 C-0.66 4.67 -1.32 4.34 -2 4 C-1.34 4 -0.68 4 0 4 C0 2.68 0 1.36 0 0 Z " fill="#B1B0B0" transform="translate(103,102)"/>
<path d="M0 0 C1.98 0 3.96 0 6 0 C6 0.66 6 1.32 6 2 C7.32 2 8.64 2 10 2 C10 1.34 10 0.68 10 0 C18.57142857 0.85714286 18.57142857 0.85714286 22 3 C21.67 3.66 21.34 4.32 21 5 C20.21367187 4.84660156 19.42734375 4.69320312 18.6171875 4.53515625 C14.12169774 3.87005679 9.66116824 3.64586315 5.125 3.4375 C4.24585938 3.39431641 3.36671875 3.35113281 2.4609375 3.30664062 C0.30744203 3.20130661 -1.84626064 3.10022351 -4 3 C-2.68 2.67 -1.36 2.34 0 2 C0 1.34 0 0.68 0 0 Z " fill="#B1B1B1" transform="translate(135,80)"/>
<path d="M0 0 C0.33 0 0.66 0 1 0 C1.10957031 0.7734375 1.21914062 1.546875 1.33203125 2.34375 C2.47774045 9.87003485 3.71295946 16.5694392 8 23 C7.01 23.33 6.02 23.66 5 24 C1.33597135 20.09170278 -0.45912 16.30239736 -1 11 C-0.8682568 7.30143172 -0.49868072 3.66597716 0 0 Z " fill="#3A3939" transform="translate(192,123)"/>
<path d="M0 0 C1.32 0.66 2.64 1.32 4 2 C4 3.98 4 5.96 4 8 C-1.75 11 -1.75 11 -4 11 C-3.48964169 6.6109185 -2.47785723 3.66291938 0 0 Z " fill="#171515" transform="translate(52,113)"/>
<path d="M0 0 C0.66 0.33 1.32 0.66 2 1 C-10.44738834 15.02800908 -10.44738834 15.02800908 -14 18 C-14.66 18 -15.32 18 -16 18 C-16 18.66 -16 19.32 -16 20 C-16.66 20 -17.32 20 -18 20 C-16.5735422 16.7413364 -14.83295838 14.5975146 -12.3046875 12.109375 C-11.23154297 11.04589844 -11.23154297 11.04589844 -10.13671875 9.9609375 C-9.39035156 9.23132812 -8.64398438 8.50171875 -7.875 7.75 C-7.12089844 7.00492188 -6.36679687 6.25984375 -5.58984375 5.4921875 C-3.73099228 3.6568658 -1.86762995 1.8263809 0 0 Z " fill="#373536" transform="translate(60,51)"/>
<path d="M0 0 C0.66 0.33 1.32 0.66 2 1 C1.67 4.96 1.34 8.92 1 13 C-1.97 12.505 -1.97 12.505 -5 12 C-4.67 11.236875 -4.34 10.47375 -4 9.6875 C-2.82563314 7.00930865 -2.82563314 7.00930865 -3 4 C-3.99 3.67 -4.98 3.34 -6 3 C-4.02 2.67 -2.04 2.34 0 2 C0 1.34 0 0.68 0 0 Z " fill="#B2B2B2" transform="translate(141,101)"/>
<path d="M0 0 C-1.33333333 2 -2.66666667 4 -4 6 C-4.69437747 7.99054876 -5.35610218 9.99255385 -6 12 C-6.9784789 14.67515168 -7.98974332 17.33659603 -9 20 C-10.1328125 18.4765625 -10.1328125 18.4765625 -11 16 C-10.43189032 13.30001484 -9.78378771 10.95319122 -8.875 8.375 C-8.55402344 7.3540625 -8.55402344 7.3540625 -8.2265625 6.3125 C-7.2221613 3.35769183 -6.49110753 1.36412916 -3.9453125 -0.5234375 C-2 -1 -2 -1 0 0 Z " fill="#403F3F" transform="translate(68,147)"/>
<path d="M0 0 C1.32 0.33 2.64 0.66 4 1 C3.4618629 6.69051363 2.8599867 12.34865884 2 18 C1.34 17.67 0.68 17.34 0 17 C0 11.39 0 5.78 0 0 Z " fill="#E0E0E0" transform="translate(52,147)"/>
<path d="M0 0 C2 3 2 3 1.75 5.875 C1.66588602 9.29448012 1.66588602 9.29448012 4.875 11.625 C5.90625 12.40875 6.9375 13.1925 8 14 C9.375 16.3125 9.375 16.3125 10 18 C8.68 18.33 7.36 18.66 6 19 C5.773125 18.278125 5.54625 17.55625 5.3125 16.8125 C4.12553355 13.8223758 4.12553355 13.8223758 1.4375 11.5625 C-1.37954771 8.6009883 -1.91208102 7.04427314 -2 3 C-1.34 2.01 -0.68 1.02 0 0 Z " fill="#323131" transform="translate(197,100)"/>
<path d="M0 0 C1.13671875 2.5625 1.13671875 2.5625 2 5 C0.04098546 4.88617347 -1.9172338 4.75858875 -3.875 4.625 C-4.96554688 4.55539063 -6.05609375 4.48578125 -7.1796875 4.4140625 C-10 4 -10 4 -12 2 C-4.09816677 -1.87344766 -4.09816677 -1.87344766 0 0 Z " fill="#2E2D2D" transform="translate(113,142)"/>
<path d="M0 0 C0.33 0 0.66 0 1 0 C1.33 4.62 1.66 9.24 2 14 C-2 13 -2 13 -4 11 C-3.34 9.35 -2.68 7.7 -2 6 C-1.34 6 -0.68 6 0 6 C0 4.02 0 2.04 0 0 Z " fill="#616161" transform="translate(57,128)"/>
<path d="M0 0 C0.98484375 0.02707031 1.9696875 0.05414063 2.984375 0.08203125 C3.73203125 0.11683594 4.4796875 0.15164062 5.25 0.1875 C4.26 0.6825 4.26 0.6825 3.25 1.1875 C3.58 2.1775 3.91 3.1675 4.25 4.1875 C-2.68 3.6925 -2.68 3.6925 -9.75 3.1875 C-5.5452889 0.03396667 -4.89908143 -0.17496719 0 0 Z " fill="#C3C2C2" transform="translate(145.75,67.8125)"/>
<path d="M0 0 C2 2 2 2 2.1953125 4.1640625 C2.16050781 5.38222656 2.16050781 5.38222656 2.125 6.625 C2.10695312 7.44226563 2.08890625 8.25953125 2.0703125 9.1015625 C2.04710937 9.72804687 2.02390625 10.35453125 2 11 C2.66 11 3.32 11 4 11 C4 11.66 4 12.32 4 13 C4.66 13.33 5.32 13.66 6 14 C4.00045254 14.04254356 1.99958364 14.04080783 0 14 C-1 13 -1 13 -1.1328125 10.56640625 C-1.13023437 9.57511719 -1.12765625 8.58382812 -1.125 7.5625 C-1.12757813 6.57378906 -1.13015625 5.58507812 -1.1328125 4.56640625 C-1 2 -1 2 0 0 Z " fill="#302F2F" transform="translate(199,123)"/>
<path d="M0 0 C2.0625 0.4375 2.0625 0.4375 4 1 C3.0925 1.61875 2.185 2.2375 1.25 2.875 C-2.96645406 6.32210107 -4.33626607 10.95986486 -6 16 C-6.66 16 -7.32 16 -8 16 C-7.68553475 9.86792766 -4.31543778 4.31543778 0 0 Z " fill="#B6B6B6" transform="translate(54,108)"/>
<path d="M0 0 C3.39192363 0.59283621 5.2107757 1.76743189 7.75 4.0625 C8.67039062 4.88427734 8.67039062 4.88427734 9.609375 5.72265625 C10.29773438 6.35494141 10.29773438 6.35494141 11 7 C10.67 7.66 10.34 8.32 10 9 C6.43179569 8.44149846 5.00428942 7.27801323 2.75 4.5 C1.96882813 3.55640625 1.96882813 3.55640625 1.171875 2.59375 C0 1 0 1 0 0 Z " fill="#949494" transform="translate(61,184)"/>
<path d="M0 0 C0.99 0 1.98 0 3 0 C1.71107323 2.87529818 0.50703617 5.05008298 -2 7 C-4.5625 7.8125 -4.5625 7.8125 -7 8 C-7.66 7.34 -8.32 6.68 -9 6 C-8.43410156 5.65066406 -7.86820313 5.30132812 -7.28515625 4.94140625 C-6.55167969 4.48636719 -5.81820312 4.03132812 -5.0625 3.5625 C-4.33160156 3.11003906 -3.60070312 2.65757812 -2.84765625 2.19140625 C-1.06100191 1.13135967 -1.06100191 1.13135967 0 0 Z " fill="#2D2D2C" transform="translate(165,160)"/>
<path d="M0 0 C0.66 0.33 1.32 0.66 2 1 C1.67 6.28 1.34 11.56 1 17 C0.34 17 -0.32 17 -1 17 C-2.13253652 10.77104914 -1.70366626 6.08251096 0 0 Z " fill="#343333" transform="translate(56,149)"/>
<path d="M0 0 C3.94139078 1.66751148 6.7892812 4.22710649 10 7 C9.01 7.33 8.02 7.66 7 8 C4.3125 6.0625 4.3125 6.0625 2 4 C0.35 5.65 -1.3 7.3 -3 9 C-3.66 8.67 -4.32 8.34 -5 8 C-4.360625 7.236875 -3.72125 6.47375 -3.0625 5.6875 C-0.85767219 3.11753287 -0.85767219 3.11753287 0 0 Z " fill="#BAB9B9" transform="translate(122,100)"/>
<path d="M0 0 C-3 2 -3 2 -5.5625 3.4375 C-8.23823502 4.9227919 -8.23823502 4.9227919 -10 8 C-10.33 5.69 -10.66 3.38 -11 1 C-6.87831311 -0.62950412 -4.29299643 -1.26264601 0 0 Z " fill="#DDDDDD" transform="translate(57,123)"/>
<path d="M0 0 C0.66 0 1.32 0 2 0 C3.12256131 2.24512262 3.13413762 3.51456649 3.125 6 C3.12886719 7.051875 3.12886719 7.051875 3.1328125 8.125 C3 10 3 10 2 12 C1.34 12 0.68 12 0 12 C0 8.04 0 4.08 0 0 Z " fill="#D5D5D5" transform="translate(67,126)"/>
<path d="M0 0 C0.33 1.32 0.66 2.64 1 4 C2.0828125 4.12375 2.0828125 4.12375 3.1875 4.25 C6.55313254 5.14750201 8.41612816 6.7114278 11 9 C10.01 9.495 10.01 9.495 9 10 C6.98276656 9.03523618 4.98387708 8.03161608 3 7 C0.76474965 6.31363375 0.76474965 6.31363375 -1 6 C-0.67 4.02 -0.34 2.04 0 0 Z " fill="#2F2F2F" transform="translate(66,112)"/>
<path d="M0 0 C0.66 0.33 1.32 0.66 2 1 C-1.96 4.96 -5.92 8.92 -10 13 C-10 8.97698923 -8.67577112 7.95743123 -6 5 C-4.05056443 3.25501743 -2.04941287 1.63021478 0 0 Z " fill="#D1D1D1" transform="translate(132,187)"/>
<path d="M0 0 C2.31 0 4.62 0 7 0 C6.01 0.33 5.02 0.66 4 1 C4.33 2.32 4.66 3.64 5 5 C4.34 5 3.68 5 3 5 C3 5.99 3 6.98 3 8 C2.34 8 1.68 8 1 8 C0.67 5.36 0.34 2.72 0 0 Z " fill="#7E7E7E" transform="translate(143,104)"/>
<path d="M0 0 C-3.63 2.31 -7.26 4.62 -11 7 C-10 3 -10 3 -7.1875 0.6875 C-4 -1 -4 -1 0 0 Z " fill="#E0DFDF" transform="translate(108,78)"/>
<path d="M0 0 C6.71244635 5.10729614 6.71244635 5.10729614 8 10 C8 10.99 8 11.98 8 13 C7.34 13 6.68 13 6 13 C5.38125 11.39125 5.38125 11.39125 4.75 9.75 C3.36260851 6.47734926 1.72000092 4.34482838 -1 2 C-0.67 1.34 -0.34 0.68 0 0 Z " fill="#BFBFBF" transform="translate(196,109)"/>
<path d="M0 0 C1.32 0 2.64 0 4 0 C3.75 3.375 3.75 3.375 3 7 C0.9375 8.4375 0.9375 8.4375 -1 9 C-0.01 7.35 0.98 5.7 2 4 C1.01 4.33 0.02 4.66 -1 5 C-0.67 3.35 -0.34 1.7 0 0 Z " fill="#A2A2A2" transform="translate(154,106)"/>
<path d="M0 0 C3.875 1.75 3.875 1.75 5 4 C5.039992 5.99960012 5.04346799 8.00047242 5 10 C4.01 10.495 4.01 10.495 3 11 C2.51171875 9.01432292 2.0234375 7.02864583 1.53515625 5.04296875 C1.08989295 3.34316798 0.55566015 1.66698046 0 0 Z " fill="#1B1A1B" transform="translate(197,114)"/>
<path d="M0 0 C0.66 0 1.32 0 2 0 C2.66 2.97 3.32 5.94 4 9 C1.525 8.01 1.525 8.01 -1 7 C-0.67 4.69 -0.34 2.38 0 0 Z " fill="#CACACA" transform="translate(125,107)"/>
<path d="M0 0 C0.66 0.33 1.32 0.66 2 1 C0.18705073 3.7194239 -1.66475218 5.74259377 -4 8 C-4 6.02 -4 4.04 -4 2 C-2.125 0.9375 -2.125 0.9375 0 0 Z " fill="#323131" transform="translate(66,146)"/>
<path d="M0 0 C0.66 0 1.32 0 2 0 C2 2.64 2 5.28 2 8 C0.35 8 -1.3 8 -3 8 C-1.125 2.25 -1.125 2.25 0 0 Z " fill="#7E7E7E" transform="translate(139,105)"/>
<path d="M0 0 C0 0.99 0 1.98 0 3 C-2.64 3.66 -5.28 4.32 -8 5 C-8 4.01 -8 3.02 -8 2 C-5.09399739 0.74335022 -3.20395416 0 0 0 Z " fill="#6B6B6A" transform="translate(127,69)"/>
<path d="M0 0 C0.33 0.99 0.66 1.98 1 3 C-4.75 8 -4.75 8 -7 8 C-5.50902342 4.2047869 -3.24299151 2.38957269 0 0 Z " fill="#707070" transform="translate(99,96)"/>
<path d="M0 0 C3.16115776 1.36983503 3.9927092 1.9890638 6 5 C5.01 5.33 4.02 5.66 3 6 C0.3125 4.0625 0.3125 4.0625 -2 2 C-1.34 2 -0.68 2 0 2 C0 1.34 0 0.68 0 0 Z " fill="#BCBCBC" transform="translate(168,87)"/>
<path d="M0 0 C7.42857143 -0.28571429 7.42857143 -0.28571429 11 2 C10.67 2.66 10.34 3.32 10 4 C5.78087253 3.5205537 3.20336822 2.83374881 0 0 Z " fill="#818181" transform="translate(146,81)"/>
<path d="M0 0 C0.33 0.99 0.66 1.98 1 3 C1.66 3 2.32 3 3 3 C3 2.01 3 1.02 3 0 C4.32 0.66 5.64 1.32 7 2 C4 4 4 4 1 4 C1 5.65 1 7.3 1 9 C0.67 9 0.34 9 0 9 C0 6.03 0 3.06 0 0 Z " fill="#C7C7C7" transform="translate(143,109)"/>
<path d="M0 0 C1.65 0 3.3 0 5 0 C5 0.99 5 1.98 5 3 C3.02 3.66 1.04 4.32 -1 5 C-0.67 3.35 -0.34 1.7 0 0 Z " fill="#0E0C0C" transform="translate(106,110)"/>
<path d="M0 0 C1.875 0.3125 1.875 0.3125 4 1 C6 4 6 4 5.625 6.1875 C5.41875 6.785625 5.2125 7.38375 5 8 C4.16382818 6.8562364 3.33113541 5.70992861 2.5 4.5625 C2.0359375 3.92441406 1.571875 3.28632812 1.09375 2.62890625 C0 1 0 1 0 0 Z " fill="#7E7E7E" transform="translate(186,86)"/>
<path d="M0 0 C0.66 0 1.32 0 2 0 C2 3.3 2 6.6 2 10 C-1 6 -1 6 -0.6875 2.75 C-0.460625 1.8425 -0.23375 0.935 0 0 Z " fill="#E1E1E1" transform="translate(202,122)"/>
<path d="M0 0 C-1.52708963 3.43595166 -3.59927045 6.11912454 -6 9 C-5.38983051 3.50847458 -5.38983051 3.50847458 -3.5625 1.125 C-2 0 -2 0 0 0 Z " fill="#D1D1D1" transform="translate(101,147)"/>
<path d="M0 0 C0.66 0 1.32 0 2 0 C2 1.98 2 3.96 2 6 C0.68 5.67 -0.64 5.34 -2 5 C-2 4.34 -2 3.68 -2 3 C-1.34 3 -0.68 3 0 3 C0 2.01 0 1.02 0 0 Z " fill="#3E3E3D" transform="translate(57,136)"/>
<path d="M0 0 C1.32 0.33 2.64 0.66 4 1 C1.03 3.475 1.03 3.475 -2 6 C-2.66 5.67 -3.32 5.34 -4 5 C-2.68 3.35 -1.36 1.7 0 0 Z " fill="#BFBFBF" transform="translate(54,108)"/>
<path d="M0 0 C0.66 0 1.32 0 2 0 C2.33 0.99 2.66 1.98 3 3 C0.1875 4.5625 0.1875 4.5625 -3 6 C-3.99 5.67 -4.98 5.34 -6 5 C-4.02 4.01 -2.04 3.02 0 2 C0 1.34 0 0.68 0 0 Z " fill="#333232" transform="translate(115,72)"/>
</svg>
